<svg width="24" height="24" viewBox="0 0 24 24" fill="none" xmlns="http://www.w3.org/2000/svg">
<path d="M18.4058 7.0343C19.2011 7.0343 19.8458 6.38959 19.8458 5.5943C19.8458 4.79901 19.2011 4.1543 18.4058 4.1543C17.6105 4.1543 16.9658 4.79901 16.9658 5.5943C16.9658 6.38959 17.6105 7.0343 18.4058 7.0343Z" fill="#393C4B"/>
<path d="M11.9999 5.83789C10.7812 5.83789 9.58981 6.19928 8.57647 6.87637C7.56313 7.55346 6.77334 8.51584 6.30695 9.6418C5.84056 10.7678 5.71853 12.0067 5.95629 13.202C6.19406 14.3973 6.78093 15.4953 7.6427 16.3571C8.50447 17.2189 9.60244 17.8057 10.7977 18.0435C11.9931 18.2813 13.232 18.1592 14.358 17.6928C15.4839 17.2264 16.4463 16.4366 17.1234 15.4233C17.8005 14.41 18.1619 13.2186 18.1619 11.9999C18.1619 10.3656 17.5127 8.7983 16.3571 7.6427C15.2015 6.4871 13.6342 5.83789 11.9999 5.83789ZM11.9999 15.9999C11.2088 15.9999 10.4354 15.7653 9.77761 15.3258C9.11982 14.8862 8.60713 14.2615 8.30437 13.5306C8.00162 12.7997 7.92241 11.9955 8.07675 11.2195C8.23109 10.4436 8.61206 9.73087 9.17147 9.17146C9.73088 8.61205 10.4436 8.23109 11.2195 8.07675C11.9955 7.92241 12.7997 8.00162 13.5306 8.30437C14.2615 8.60712 14.8862 9.11981 15.3258 9.77761C15.7653 10.4354 15.9999 11.2088 15.9999 11.9999C15.9999 13.0608 15.5785 14.0782 14.8283 14.8283C14.0782 15.5785 13.0608 15.9999 11.9999 15.9999Z" fill="#393C4B"/>
<path d="M12 2.162C15.204 2.162 15.584 2.174 16.849 2.232C17.6098 2.24103 18.3635 2.38073 19.077 2.645C19.5947 2.84469 20.0648 3.15055 20.4571 3.54288C20.8495 3.93521 21.1553 4.40534 21.355 4.923C21.6193 5.63653 21.759 6.39016 21.768 7.151C21.826 8.416 21.838 8.796 21.838 12.001C21.838 15.206 21.826 15.584 21.768 16.849C21.759 17.6098 21.6193 18.3635 21.355 19.077C21.1553 19.5947 20.8495 20.0648 20.4571 20.4571C20.0648 20.8495 19.5947 21.1553 19.077 21.355C18.3635 21.6193 17.6098 21.759 16.849 21.768C15.584 21.826 15.204 21.838 12 21.838C8.796 21.838 8.416 21.826 7.151 21.768C6.39016 21.759 5.63653 21.6193 4.923 21.355C4.40534 21.1553 3.93521 20.8495 3.54288 20.4571C3.15055 20.0648 2.84469 19.5947 2.645 19.077C2.38073 18.3635 2.24103 17.6098 2.232 16.849C2.174 15.584 2.162 15.204 2.162 12C2.162 8.796 2.174 8.416 2.232 7.151C2.24103 6.39016 2.38073 5.63653 2.645 4.923C2.84469 4.40534 3.15055 3.93521 3.54288 3.54288C3.93521 3.15055 4.40534 2.84469 4.923 2.645C5.63653 2.38073 6.39016 2.24103 7.151 2.232C8.416 2.174 8.796 2.162 12 2.162V2.162ZM12 0C8.741 0 8.332 0.014 7.052 0.072C6.05677 0.0920961 5.07216 0.280769 4.14 0.63C3.34272 0.938297 2.61866 1.40978 2.01422 2.01422C1.40978 2.61866 0.938297 3.34272 0.63 4.14C0.280658 5.07247 0.0919834 6.05744 0.072 7.053C0.014 8.333 0 8.74 0 12C0 15.26 0.014 15.668 0.072 16.948C0.0920961 17.9432 0.280769 18.9278 0.63 19.86C0.938297 20.6573 1.40978 21.3813 2.01422 21.9858C2.61866 22.5902 3.34272 23.0617 4.14 23.37C5.07247 23.7193 6.05744 23.908 7.053 23.928C8.333 23.986 8.741 24 12 24C15.259 24 15.668 23.986 16.948 23.928C17.9436 23.908 18.9285 23.7193 19.861 23.37C20.6583 23.0617 21.3823 22.5902 21.9868 21.9858C22.5912 21.3813 23.0627 20.6573 23.371 19.86C23.72 18.9275 23.9083 17.9425 23.928 16.947C23.986 15.667 24 15.26 24 12C24 8.74 23.986 8.332 23.928 7.052C23.9079 6.05677 23.7192 5.07216 23.37 4.14C23.0617 3.34272 22.5902 2.61866 21.9858 2.01422C21.3813 1.40978 20.6573 0.938297 19.86 0.63C18.9275 0.281 17.9425 0.0926631 16.947 0.073C15.667 0.013 15.26 0 12 0Z" fill="#393C4B"/>
</svg>
