<svg width="156" height="122" viewBox="0 0 156 122" fill="none" xmlns="http://www.w3.org/2000/svg">
<path d="M110.951 40.508V34.7205C110.951 34.4164 110.892 34.1154 110.775 33.8345C110.659 33.5535 110.489 33.2983 110.274 33.0833C110.059 32.8683 109.803 32.6979 109.523 32.5816C109.242 32.4653 108.941 32.4056 108.637 32.4057H105.164V19.6752C105.164 19.3682 105.042 19.0739 104.825 18.8568C104.608 18.6398 104.313 18.5178 104.006 18.5178C103.699 18.5178 103.405 18.6398 103.188 18.8568C102.971 19.0739 102.849 19.3682 102.849 19.6752V27.2454C101.949 26.4323 100.85 25.8707 99.6638 25.6171C98.4775 25.3635 97.2453 25.4269 96.0913 25.801C95.3339 24.9688 94.4117 24.3032 93.3832 23.8464C92.3548 23.3897 91.2427 23.1518 90.1174 23.1479C88.5827 23.1431 87.0786 23.5774 85.7827 24.3997C84.4869 25.222 83.4533 26.3979 82.8041 27.7886C81.3368 27.8841 79.9607 28.5339 78.9546 29.6062C77.9485 30.6786 77.3877 32.0933 77.3858 33.5637C77.3874 35.0981 77.9977 36.5693 79.0827 37.6543C80.1677 38.7393 81.6388 39.3496 83.1732 39.3512H97.0628V40.5092C95.8361 40.5128 94.6607 41.0017 93.7933 41.8691C92.9259 42.7365 92.437 43.912 92.4334 45.1387V53.2409H83.1745C81.1202 53.2409 79.7017 54.2644 79.7017 56.41V43.1881C79.7017 41.8968 78.9647 40.0956 78.0648 39.1845L69.7651 30.7749C69.3492 30.3542 68.7867 30.1107 68.1953 30.0953C67.604 30.0798 67.0296 30.2937 66.5923 30.6922C65.0208 29.5489 63.1273 28.933 61.1839 28.933C58.8292 28.938 56.5644 29.8378 54.8483 31.4502C54.2691 31.3157 53.6764 31.2478 53.0817 31.2477C51.5052 31.2515 49.9639 31.7136 48.6453 32.5776C47.3267 33.4416 46.2877 34.6704 45.6548 36.1143C44.4584 36.4699 43.4087 37.2021 42.6618 38.2022C41.9149 39.2022 41.5107 40.4166 41.5093 41.6647C41.5109 43.1992 42.1212 44.6703 43.2062 45.7553C44.2912 46.8403 45.7623 47.4506 47.2967 47.4522H56.5557V57.8692H46.1387C44.912 57.8728 43.7366 58.3617 42.8692 59.2291C42.0018 60.0965 41.5129 61.272 41.5093 62.4987V92.5892H82.0177V60.1445C82.0177 59.5297 82.4362 59.026 82.9448 59.026H83.4078C83.9164 59.026 84.3324 59.5297 84.3324 60.1445V92.5892H87.8039V60.1445C87.8039 59.5297 88.2224 59.026 88.731 59.026H89.194C89.7026 59.026 90.1187 59.5297 90.1187 60.1445V92.5892H115.581V45.1375C115.577 43.9106 115.089 42.735 114.221 41.8675C113.354 41 112.178 40.5112 110.951 40.508V40.508ZM52.5039 85.645C52.5033 85.9519 52.3811 86.2461 52.1641 86.4631C51.947 86.6801 51.6529 86.8023 51.346 86.803H47.8745C47.5678 86.8017 47.274 86.6793 47.0571 86.4624C46.8402 86.2455 46.7178 85.9517 46.7165 85.645V83.3302C46.7172 83.0233 46.8394 82.7292 47.0564 82.5121C47.2734 82.2951 47.5676 82.1729 47.8745 82.1722H51.3472C51.6541 82.1729 51.9483 82.2951 52.1653 82.5121C52.3823 82.7292 52.5045 83.0233 52.5052 83.3302V85.645H52.5039ZM52.5039 76.386C52.5033 76.6929 52.3811 76.9871 52.1641 77.2041C51.947 77.4211 51.6529 77.5433 51.346 77.544H47.8745C47.5678 77.5427 47.274 77.4203 47.0571 77.2034C46.8402 76.9865 46.7178 76.6927 46.7165 76.386V74.0712C46.7172 73.7643 46.8394 73.4702 47.0564 73.2531C47.2734 73.0361 47.5676 72.9139 47.8745 72.9132H51.3472C51.6541 72.9139 51.9483 73.0361 52.1653 73.2531C52.3823 73.4702 52.5045 73.7643 52.5052 74.0712V76.386H52.5039ZM52.5039 67.127C52.5033 67.4339 52.3811 67.7281 52.1641 67.9451C51.947 68.1621 51.6529 68.2843 51.346 68.285H47.8745C47.5678 68.2837 47.274 68.1613 47.0571 67.9444C46.8402 67.7275 46.7178 67.4337 46.7165 67.127V64.8122C46.7172 64.5053 46.8394 64.2112 47.0564 63.9941C47.2734 63.7771 47.5676 63.6549 47.8745 63.6542H51.3472C51.6541 63.6549 51.9483 63.7771 52.1653 63.9941C52.3823 64.2112 52.5045 64.5053 52.5052 64.8122V67.127H52.5039ZM47.2967 45.1375C46.3917 45.1133 45.5319 44.7369 44.9004 44.0882C44.2688 43.4396 43.9154 42.57 43.9154 41.6647C43.9154 40.7594 44.2688 39.8898 44.9004 39.2412C45.5319 38.5926 46.3917 38.2161 47.2967 38.192H47.4152C47.6816 36.8851 48.3915 35.7104 49.4245 34.8667C50.4576 34.0231 51.7504 33.5623 53.0842 33.5625C53.973 33.5625 54.8051 33.7798 55.5569 34.1365C56.1986 33.2427 57.0438 32.5145 58.0227 32.0122C59.0016 31.5099 60.0861 31.2478 61.1864 31.2477C62.5703 31.2477 63.8542 31.6564 64.9368 32.3539L58.1939 39.1845C57.2939 40.0956 56.5569 41.8968 56.5569 43.1881V45.1362H47.2967V45.1375ZM76.2303 85.645C76.2296 85.9519 76.1074 86.2461 75.8904 86.4631C75.6733 86.6801 75.3792 86.8023 75.0723 86.803H61.1839C60.8772 86.8017 60.5834 86.6793 60.3665 86.4624C60.1496 86.2455 60.0272 85.9517 60.0259 85.645V83.3302C60.0266 83.0233 60.1488 82.7292 60.3658 82.5121C60.5828 82.2951 60.877 82.1729 61.1839 82.1722H75.0723C75.3792 82.1729 75.6733 82.2951 75.8904 82.5121C76.1074 82.7292 76.2296 83.0233 76.2303 83.3302V85.645ZM76.2303 76.386C76.2296 76.6929 76.1074 76.9871 75.8904 77.2041C75.6733 77.4211 75.3792 77.5433 75.0723 77.544H61.1839C60.8772 77.5427 60.5834 77.4203 60.3665 77.2034C60.1496 76.9865 60.0272 76.6927 60.0259 76.386V74.0712C60.0266 73.7643 60.1488 73.4702 60.3658 73.2531C60.5828 73.0361 60.877 72.9139 61.1839 72.9132H75.0723C75.3792 72.9139 75.6733 73.0361 75.8904 73.2531C76.1074 73.4702 76.2296 73.7643 76.2303 74.0712V76.386ZM76.2303 67.127C76.2296 67.4339 76.1074 67.7281 75.8904 67.9451C75.6733 68.1621 75.3792 68.2843 75.0723 68.285H61.1839C60.8772 68.2837 60.5834 68.1613 60.3665 67.9444C60.1496 67.7275 60.0272 67.4337 60.0259 67.127V64.8122C60.0266 64.5053 60.1488 64.2112 60.3658 63.9941C60.5828 63.7771 60.877 63.6549 61.1839 63.6542H75.0723C75.3792 63.6549 75.6733 63.7771 75.8904 63.9941C76.1074 64.2112 76.2296 64.5053 76.2303 64.8122V67.127ZM76.2303 57.868C76.2296 58.1749 76.1074 58.4691 75.8904 58.6861C75.6733 58.9031 75.3792 59.0253 75.0723 59.026H61.1839C60.8772 59.0247 60.5834 58.9022 60.3665 58.6854C60.1496 58.4685 60.0272 58.1747 60.0259 57.868V55.5532C60.0266 55.2463 60.1488 54.9521 60.3658 54.7351C60.5828 54.5181 60.877 54.3959 61.1839 54.3952H75.0723C75.3792 54.3959 75.6733 54.5181 75.8904 54.7351C76.1074 54.9521 76.2296 55.2463 76.2303 55.5532V57.868ZM76.2303 48.609C76.2296 48.9159 76.1074 49.2101 75.8904 49.4271C75.6733 49.6441 75.3792 49.7663 75.0723 49.767H61.1839C60.8772 49.7657 60.5834 49.6432 60.3665 49.4264C60.1496 49.2095 60.0272 48.9157 60.0259 48.609V46.2942C60.0266 45.9873 60.1488 45.6931 60.3658 45.4761C60.5828 45.2591 60.877 45.1369 61.1839 45.1362H75.0723C75.3792 45.1369 75.6733 45.2591 75.8904 45.4761C76.1074 45.6931 76.2296 45.9873 76.2303 46.2942V48.609ZM83.1745 37.0352C82.2695 37.0111 81.4096 36.6346 80.7781 35.986C80.1465 35.3373 79.7931 34.4678 79.7931 33.5625C79.7931 32.6572 80.1465 31.7876 80.7781 31.139C81.4096 30.4903 82.2695 30.1139 83.1745 30.0897C83.6176 30.0897 84.0349 30.1798 84.425 30.3317C84.8645 27.5737 87.2385 25.4602 90.1187 25.4602C91.2177 25.4617 92.2935 25.7769 93.2196 26.3686C94.1457 26.9604 94.8837 27.8042 95.3469 28.8009C96.1598 28.1412 97.174 27.7796 98.2208 27.7762C99.4486 27.7762 100.626 28.264 101.494 29.1322C102.363 30.0004 102.85 31.1779 102.85 32.4057H99.3776C98.7638 32.406 98.1752 32.65 97.7412 33.084C97.3072 33.5181 97.0632 34.1067 97.0628 34.7205V37.0352H83.1745ZM102.271 87.9597C102.271 88.2667 102.148 88.5608 101.931 88.7778C101.714 88.9949 101.42 89.1171 101.113 89.1177H97.6406C97.3339 89.1164 97.0401 88.994 96.8232 88.7771C96.6063 88.5602 96.4839 88.2665 96.4826 87.9597V85.645C96.4833 85.3381 96.6055 85.0439 96.8225 84.8269C97.0395 84.6099 97.3337 84.4877 97.6406 84.487H101.113C101.42 84.4877 101.714 84.6099 101.931 84.8269C102.148 85.0439 102.271 85.3381 102.271 85.645V87.9597ZM102.271 79.8587C102.271 80.1657 102.148 80.4598 101.931 80.6768C101.714 80.8939 101.42 81.0161 101.113 81.0167H97.6406C97.3339 81.0154 97.0401 80.893 96.8232 80.6761C96.6063 80.4592 96.4839 80.1655 96.4826 79.8587V77.544C96.4833 77.2371 96.6055 76.9429 96.8225 76.7259C97.0395 76.5089 97.3337 76.3866 97.6406 76.386H101.113C101.42 76.3866 101.714 76.5089 101.931 76.7259C102.148 76.9429 102.271 77.2371 102.271 77.544V79.8587ZM102.271 71.7565C102.271 72.0634 102.148 72.3576 101.931 72.5746C101.714 72.7916 101.42 72.9138 101.113 72.9145H97.6406C97.3339 72.9132 97.0401 72.7908 96.8232 72.5739C96.6063 72.357 96.4839 72.0632 96.4826 71.7565V69.4417C96.4833 69.1348 96.6055 68.8407 96.8225 68.6236C97.0395 68.4066 97.3337 68.2844 97.6406 68.2837H101.113C101.42 68.2844 101.714 68.4066 101.931 68.6236C102.148 68.8407 102.271 69.1348 102.271 69.4417V71.7565ZM102.271 63.6555C102.271 63.9624 102.148 64.2566 101.931 64.4736C101.714 64.6906 101.42 64.8128 101.113 64.8135H97.6406C97.3339 64.8122 97.0401 64.6897 96.8232 64.4729C96.6063 64.256 96.4839 63.9622 96.4826 63.6555V61.3407C96.4833 61.0338 96.6055 60.7396 96.8225 60.5226C97.0395 60.3056 97.3337 60.1834 97.6406 60.1827H101.113C101.42 60.1834 101.714 60.3056 101.931 60.5226C102.148 60.7396 102.271 61.0338 102.271 61.3407V63.6555ZM102.271 55.5532C102.271 55.8601 102.148 56.1543 101.931 56.3713C101.714 56.5884 101.42 56.7106 101.113 56.7112H97.6406C97.3339 56.7099 97.0401 56.5875 96.8232 56.3706C96.6063 56.1537 96.4839 55.8599 96.4826 55.5532V53.2385C96.4833 52.9316 96.6055 52.6374 96.8225 52.4204C97.0395 52.2033 97.3337 52.0811 97.6406 52.0805H101.113C101.42 52.0811 101.714 52.2033 101.931 52.4204C102.148 52.6374 102.271 52.9316 102.271 53.2385V55.5532V55.5532ZM102.271 47.4522C102.271 47.7591 102.148 48.0533 101.931 48.2703C101.714 48.4873 101.42 48.6096 101.113 48.6102H97.6406C97.3339 48.6089 97.0401 48.4865 96.8232 48.2696C96.6063 48.0527 96.4839 47.7589 96.4826 47.4522V45.1375C96.4833 44.8305 96.6055 44.5364 96.8225 44.3194C97.0395 44.1023 97.3337 43.9801 97.6406 43.9795H101.113C101.42 43.9801 101.714 44.1023 101.931 44.3194C102.148 44.5364 102.271 44.8305 102.271 45.1375V47.4522ZM111.53 87.9597C111.53 88.2667 111.407 88.5608 111.19 88.7778C110.973 88.9949 110.679 89.1171 110.372 89.1177H106.9C106.593 89.1164 106.299 88.994 106.082 88.7771C105.865 88.5602 105.743 88.2665 105.742 87.9597V85.645C105.742 85.3381 105.864 85.0439 106.081 84.8269C106.298 84.6099 106.593 84.4877 106.9 84.487H110.372C110.679 84.4877 110.973 84.6099 111.19 84.8269C111.407 85.0439 111.53 85.3381 111.53 85.645V87.9597ZM111.53 79.8587C111.53 80.1657 111.407 80.4598 111.19 80.6768C110.973 80.8939 110.679 81.0161 110.372 81.0167H106.9C106.593 81.0154 106.299 80.893 106.082 80.6761C105.865 80.4592 105.743 80.1655 105.742 79.8587V77.544C105.742 77.2371 105.864 76.9429 106.081 76.7259C106.298 76.5089 106.593 76.3866 106.9 76.386H110.372C110.679 76.3866 110.973 76.5089 111.19 76.7259C111.407 76.9429 111.53 77.2371 111.53 77.544V79.8587ZM111.53 71.7565C111.53 72.0634 111.407 72.3576 111.19 72.5746C110.973 72.7916 110.679 72.9138 110.372 72.9145H106.9C106.593 72.9132 106.299 72.7908 106.082 72.5739C105.865 72.357 105.743 72.0632 105.742 71.7565V69.4417C105.742 69.1348 105.864 68.8407 106.081 68.6236C106.298 68.4066 106.593 68.2844 106.9 68.2837H110.372C110.679 68.2844 110.973 68.4066 111.19 68.6236C111.407 68.8407 111.53 69.1348 111.53 69.4417V71.7565ZM111.53 63.6555C111.53 63.9624 111.407 64.2566 111.19 64.4736C110.973 64.6906 110.679 64.8128 110.372 64.8135H106.9C106.593 64.8122 106.299 64.6897 106.082 64.4729C105.865 64.256 105.743 63.9622 105.742 63.6555V61.3407C105.742 61.0338 105.864 60.7396 106.081 60.5226C106.298 60.3056 106.593 60.1834 106.9 60.1827H110.372C110.679 60.1834 110.973 60.3056 111.19 60.5226C111.407 60.7396 111.53 61.0338 111.53 61.3407V63.6555ZM111.53 55.5532C111.53 55.8601 111.407 56.1543 111.19 56.3713C110.973 56.5884 110.679 56.7106 110.372 56.7112H106.9C106.593 56.7099 106.299 56.5875 106.082 56.3706C105.865 56.1537 105.743 55.8599 105.742 55.5532V53.2385C105.742 52.9316 105.864 52.6374 106.081 52.4204C106.298 52.2033 106.593 52.0811 106.9 52.0805H110.372C110.679 52.0811 110.973 52.2033 111.19 52.4204C111.407 52.6374 111.53 52.9316 111.53 53.2385V55.5532ZM111.53 47.4522C111.53 47.7591 111.407 48.0533 111.19 48.2703C110.973 48.4873 110.679 48.6096 110.372 48.6102H106.9C106.593 48.6089 106.299 48.4865 106.082 48.2696C105.865 48.0527 105.743 47.7589 105.742 47.4522V45.1375C105.742 44.8305 105.864 44.5364 106.081 44.3194C106.298 44.1023 106.593 43.9801 106.9 43.9795H110.372C110.679 43.9801 110.973 44.1023 111.19 44.3194C111.407 44.5364 111.53 44.8305 111.53 45.1375V47.4522Z" fill="white"/>
<path d="M133.632 99.8182H22.3688C19.4188 99.8152 16.5905 98.6458 14.5046 96.5665C12.4186 94.4872 11.2454 91.6679 11.2425 88.7273V11.0909C11.2454 8.15032 12.4186 5.33101 14.5046 3.25169C16.5905 1.17238 19.4188 0.00293619 22.3688 0H133.632C136.581 0.00293619 139.41 1.17238 141.496 3.25169C143.582 5.33101 144.755 8.15032 144.758 11.0909V88.7273C144.753 91.6674 143.58 94.4859 141.494 96.5649C139.408 98.6439 136.581 99.8138 133.632 99.8182ZM22.3688 11.0909V88.7273H133.632V11.0909H22.3688ZM0.116211 110.909H155.884V122H0.116211V110.909Z" fill="white"/>
</svg>
