<svg width="20" height="28" viewBox="0 0 20 28" fill="none" xmlns="http://www.w3.org/2000/svg">
<path d="M1.4282 24.8889H18.5718C18.9338 24.889 19.2822 25.0387 19.5467 25.3078C19.8112 25.5769 19.972 25.9452 19.9967 26.3384C20.0213 26.7316 19.908 27.1204 19.6796 27.4261C19.4512 27.7318 19.1247 27.9318 18.7661 27.9855L18.5718 28H1.4282C1.06623 27.9999 0.717803 27.8502 0.453314 27.5811C0.188825 27.312 0.0279962 26.9437 0.00332469 26.5505C-0.0213468 26.1573 0.0919784 25.7685 0.320402 25.4628C0.548826 25.1571 0.875317 24.9571 1.2339 24.9034L1.4282 24.8889H18.5718H1.4282ZM9.80571 0.0145185L10 0C10.3452 1.58519e-05 10.6788 0.136148 10.939 0.383221C11.1991 0.630293 11.3683 0.971592 11.4153 1.344L11.4286 1.55556V17.501L15.7241 12.8261C15.9663 12.5624 16.2875 12.4023 16.6291 12.3749C16.9707 12.3474 17.31 12.4546 17.5851 12.6767L17.7451 12.8261C17.9873 13.0898 18.1343 13.4396 18.1595 13.8115C18.1847 14.1835 18.0863 14.5529 17.8822 14.8524L17.7451 15.0267L11.0096 22.3585C10.7677 22.622 10.447 22.7821 10.1058 22.8099C9.76464 22.8377 9.42563 22.7313 9.15044 22.5099L8.99043 22.3585L2.2549 15.0267C1.99928 14.7491 1.84965 14.3765 1.83609 13.9837C1.82252 13.5909 1.94603 13.207 2.18178 12.9094C2.41753 12.6117 2.74804 12.4222 3.10686 12.3791C3.46568 12.3359 3.8262 12.4423 4.11593 12.6767L4.27594 12.8261L8.57137 17.5052V1.55556C8.57138 1.17966 8.69641 0.816476 8.92332 0.533181C9.15023 0.249886 9.46368 0.0656409 9.80571 0.0145185L10 0L9.80571 0.0145185Z" fill="#2E3141"/>
</svg>
